<?xml version="1.0" encoding="utf-8" standalone="no"?>
<!DOCTYPE svg PUBLIC "-//W3C//DTD SVG 1.1//EN"
  "http://www.w3.org/Graphics/SVG/1.1/DTD/svg11.dtd">
<svg xmlns:xlink="http://www.w3.org/1999/xlink" width="460.8pt" height="345.6pt" viewBox="0 0 460.8 345.6" xmlns="http://www.w3.org/2000/svg" version="1.1">
 <metadata>
  <rdf:RDF xmlns:dc="http://purl.org/dc/elements/1.1/" xmlns:cc="http://creativecommons.org/ns#" xmlns:rdf="http://www.w3.org/1999/02/22-rdf-syntax-ns#">
   <cc:Work>
    <dc:type rdf:resource="http://purl.org/dc/dcmitype/StillImage"/>
    <dc:date>2022-11-03T22:42:05.187911</dc:date>
    <dc:format>image/svg+xml</dc:format>
    <dc:creator>
     <cc:Agent>
      <dc:title>Matplotlib v3.6.0, https://matplotlib.org/</dc:title>
     </cc:Agent>
    </dc:creator>
   </cc:Work>
  </rdf:RDF>
 </metadata>
 <defs>
  <style type="text/css">*{stroke-linejoin: round; stroke-linecap: butt}</style>
 </defs>
 <g id="figure_1">
  <g id="patch_1">
   <path d="M 0 345.6 
L 460.8 345.6 
L 460.8 0 
L 0 0 
z
" style="fill: #ffffff"/>
  </g>
  <g id="axes_1">
   <g id="patch_2">
    <path d="M 57.6 307.584 
L 414.72 307.584 
L 414.72 41.472 
L 57.6 41.472 
z
" style="fill: #ffffff"/>
   </g>
   <g id="PathCollection_1">
    <defs>
     <path id="m652cafe0fb" d="M 0 3 
C 0.795609 3 1.55874 2.683901 2.12132 2.12132 
C 2.683901 1.55874 3 0.795609 3 0 
C 3 -0.795609 2.683901 -1.55874 2.12132 -2.12132 
C 1.55874 -2.683901 0.795609 -3 0 -3 
C -0.795609 -3 -1.55874 -2.683901 -2.12132 -2.12132 
C -2.683901 -1.55874 -3 -0.795609 -3 0 
C -3 0.795609 -2.683901 1.55874 -2.12132 2.12132 
C -1.55874 2.683901 -0.795609 3 0 3 
z
" style="stroke: #8cb69a"/>
    </defs>
    <g clip-path="url(#p2a172b5e22)">
     <use xlink:href="#m652cafe0fb" x="255.208819" y="102.572248" style="fill: #8cb69a; stroke: #8cb69a"/>
     <use xlink:href="#m652cafe0fb" x="253.001352" y="110.65116" style="fill: #8cb69a; stroke: #8cb69a"/>
     <use xlink:href="#m652cafe0fb" x="246.267226" y="97.657811" style="fill: #8cb69a; stroke: #8cb69a"/>
     <use xlink:href="#m652cafe0fb" x="235.910508" y="100.927835" style="fill: #8cb69a; stroke: #8cb69a"/>
     <use xlink:href="#m652cafe0fb" x="251.558799" y="98.535785" style="fill: #8cb69a; stroke: #8cb69a"/>
     <use xlink:href="#m652cafe0fb" x="252.610096" y="115.85461" style="fill: #8cb69a; stroke: #8cb69a"/>
     <use xlink:href="#m652cafe0fb" x="238.401982" y="102.376957" style="fill: #8cb69a; stroke: #8cb69a"/>
     <use xlink:href="#m652cafe0fb" x="250.477247" y="103.832752" style="fill: #8cb69a; stroke: #8cb69a"/>
     <use xlink:href="#m652cafe0fb" x="226.940488" y="97.734887" style="fill: #8cb69a; stroke: #8cb69a"/>
     <use xlink:href="#m652cafe0fb" x="249.781027" y="98.320705" style="fill: #8cb69a; stroke: #8cb69a"/>
     <use xlink:href="#m652cafe0fb" x="259.0116" y="105.534683" style="fill: #8cb69a; stroke: #8cb69a"/>
     <use xlink:href="#m652cafe0fb" x="241.230857" y="100.679632" style="fill: #8cb69a; stroke: #8cb69a"/>
     <use xlink:href="#m652cafe0fb" x="249.618817" y="95.646856" style="fill: #8cb69a; stroke: #8cb69a"/>
     <use xlink:href="#m652cafe0fb" x="231.547241" y="61.131003" style="fill: #8cb69a; stroke: #8cb69a"/>
     <use xlink:href="#m652cafe0fb" x="270.236339" y="104.049078" style="fill: #8cb69a; stroke: #8cb69a"/>
     <use xlink:href="#m652cafe0fb" x="258.611569" y="109.936296" style="fill: #8cb69a; stroke: #8cb69a"/>
     <use xlink:href="#m652cafe0fb" x="259.77068" y="112.729992" style="fill: #8cb69a; stroke: #8cb69a"/>
     <use xlink:href="#m652cafe0fb" x="254.413808" y="110.500542" style="fill: #8cb69a; stroke: #8cb69a"/>
     <use xlink:href="#m652cafe0fb" x="259.94427" y="115.85461" style="fill: #8cb69a; stroke: #8cb69a"/>
     <use xlink:href="#m652cafe0fb" x="250.387435" y="105.534683" style="fill: #8cb69a; stroke: #8cb69a"/>
     <use xlink:href="#m652cafe0fb" x="257.183053" y="113.603511" style="fill: #8cb69a; stroke: #8cb69a"/>
     <use xlink:href="#m652cafe0fb" x="250.387435" y="114.158847" style="fill: #8cb69a; stroke: #8cb69a"/>
     <use xlink:href="#m652cafe0fb" x="248.58208" y="81.362403" style="fill: #8cb69a; stroke: #8cb69a"/>
     <use xlink:href="#m652cafe0fb" x="247.810054" y="132.349507" style="fill: #8cb69a; stroke: #8cb69a"/>
     <use xlink:href="#m652cafe0fb" x="234.401827" y="104.77705" style="fill: #8cb69a; stroke: #8cb69a"/>
     <use xlink:href="#m652cafe0fb" x="250.667284" y="115.872917" style="fill: #8cb69a; stroke: #8cb69a"/>
     <use xlink:href="#m652cafe0fb" x="247.056612" y="120.681036" style="fill: #8cb69a; stroke: #8cb69a"/>
     <use xlink:href="#m652cafe0fb" x="255.634106" y="105.786069" style="fill: #8cb69a; stroke: #8cb69a"/>
     <use xlink:href="#m652cafe0fb" x="258.96638" y="106.727638" style="fill: #8cb69a; stroke: #8cb69a"/>
     <use xlink:href="#m652cafe0fb" x="237.632821" y="102.838454" style="fill: #8cb69a; stroke: #8cb69a"/>
     <use xlink:href="#m652cafe0fb" x="242.086746" y="108.133446" style="fill: #8cb69a; stroke: #8cb69a"/>
     <use xlink:href="#m652cafe0fb" x="259.878267" y="125.29616" style="fill: #8cb69a; stroke: #8cb69a"/>
     <use xlink:href="#m652cafe0fb" x="252.280422" y="89.172432" style="fill: #8cb69a; stroke: #8cb69a"/>
     <use xlink:href="#m652cafe0fb" x="259.210217" y="98.57263" style="fill: #8cb69a; stroke: #8cb69a"/>
     <use xlink:href="#m652cafe0fb" x="249.781027" y="98.320705" style="fill: #8cb69a; stroke: #8cb69a"/>
     <use xlink:href="#m652cafe0fb" x="260.764908" y="104.284957" style="fill: #8cb69a; stroke: #8cb69a"/>
     <use xlink:href="#m652cafe0fb" x="267.883053" y="109.019896" style="fill: #8cb69a; stroke: #8cb69a"/>
     <use xlink:href="#m652cafe0fb" x="249.781027" y="98.320705" style="fill: #8cb69a; stroke: #8cb69a"/>
     <use xlink:href="#m652cafe0fb" x="231.089875" y="92.112594" style="fill: #8cb69a; stroke: #8cb69a"/>
     <use xlink:href="#m652cafe0fb" x="253.567855" y="105.939859" style="fill: #8cb69a; stroke: #8cb69a"/>
     <use xlink:href="#m652cafe0fb" x="253.929921" y="107.497526" style="fill: #8cb69a; stroke: #8cb69a"/>
     <use xlink:href="#m652cafe0fb" x="237.925292" y="158.905168" style="fill: #8cb69a; stroke: #8cb69a"/>
     <use xlink:href="#m652cafe0fb" x="231.771022" y="87.330658" style="fill: #8cb69a; stroke: #8cb69a"/>
     <use xlink:href="#m652cafe0fb" x="245.850672" y="130.993763" style="fill: #8cb69a; stroke: #8cb69a"/>
     <use xlink:href="#m652cafe0fb" x="242.739561" y="115.512008" style="fill: #8cb69a; stroke: #8cb69a"/>
     <use xlink:href="#m652cafe0fb" x="248.031734" y="118.864504" style="fill: #8cb69a; stroke: #8cb69a"/>
     <use xlink:href="#m652cafe0fb" x="248.909735" y="99.598404" style="fill: #8cb69a; stroke: #8cb69a"/>
     <use xlink:href="#m652cafe0fb" x="238.806498" y="96.456306" style="fill: #8cb69a; stroke: #8cb69a"/>
     <use xlink:href="#m652cafe0fb" x="256.635667" y="103.81204" style="fill: #8cb69a; stroke: #8cb69a"/>
     <use xlink:href="#m652cafe0fb" x="253.835181" y="104.747175" style="fill: #8cb69a; stroke: #8cb69a"/>
    </g>
   </g>
   <g id="PathCollection_2">
    <defs>
     <path id="m2b487bab87" d="M 0 3 
C 0.795609 3 1.55874 2.683901 2.12132 2.12132 
C 2.683901 1.55874 3 0.795609 3 0 
C 3 -0.795609 2.683901 -1.55874 2.12132 -2.12132 
C 1.55874 -2.683901 0.795609 -3 0 -3 
C -0.795609 -3 -1.55874 -2.683901 -2.12132 -2.12132 
C -2.683901 -1.55874 -3 -0.795609 -3 0 
C -3 0.795609 -2.683901 1.55874 -2.12132 2.12132 
C -1.55874 2.683901 -0.795609 3 0 3 
z
" style="stroke: #6ab800"/>
    </defs>
    <g clip-path="url(#p2a172b5e22)">
     <use xlink:href="#m2b487bab87" x="242.15524" y="176.560869" style="fill: #6ab800; stroke: #6ab800"/>
     <use xlink:href="#m2b487bab87" x="235.643707" y="178.87961" style="fill: #6ab800; stroke: #6ab800"/>
     <use xlink:href="#m2b487bab87" x="239.138598" y="180.611213" style="fill: #6ab800; stroke: #6ab800"/>
     <use xlink:href="#m2b487bab87" x="222.069283" y="204.698044" style="fill: #6ab800; stroke: #6ab800"/>
     <use xlink:href="#m2b487bab87" x="236.211975" y="188.327423" style="fill: #6ab800; stroke: #6ab800"/>
     <use xlink:href="#m2b487bab87" x="222.877782" y="185.361883" style="fill: #6ab800; stroke: #6ab800"/>
     <use xlink:href="#m2b487bab87" x="232.565314" y="178.713917" style="fill: #6ab800; stroke: #6ab800"/>
     <use xlink:href="#m2b487bab87" x="212.178596" y="196.915703" style="fill: #6ab800; stroke: #6ab800"/>
     <use xlink:href="#m2b487bab87" x="237.75561" y="181.472828" style="fill: #6ab800; stroke: #6ab800"/>
     <use xlink:href="#m2b487bab87" x="218.061643" y="193.261387" style="fill: #6ab800; stroke: #6ab800"/>
     <use xlink:href="#m2b487bab87" x="208.916221" y="219.085843" style="fill: #6ab800; stroke: #6ab800"/>
     <use xlink:href="#m2b487bab87" x="230.343405" y="184.427397" style="fill: #6ab800; stroke: #6ab800"/>
     <use xlink:href="#m2b487bab87" x="233.187073" y="198.446549" style="fill: #6ab800; stroke: #6ab800"/>
     <use xlink:href="#m2b487bab87" x="228.82007" y="184.151463" style="fill: #6ab800; stroke: #6ab800"/>
     <use xlink:href="#m2b487bab87" x="230.560211" y="183.325302" style="fill: #6ab800; stroke: #6ab800"/>
     <use xlink:href="#m2b487bab87" x="240.916061" y="178.912493" style="fill: #6ab800; stroke: #6ab800"/>
     <use xlink:href="#m2b487bab87" x="222.144387" y="184.591949" style="fill: #6ab800; stroke: #6ab800"/>
     <use xlink:href="#m2b487bab87" x="228.182167" y="180.640885" style="fill: #6ab800; stroke: #6ab800"/>
     <use xlink:href="#m2b487bab87" x="231.839917" y="207.534679" style="fill: #6ab800; stroke: #6ab800"/>
     <use xlink:href="#m2b487bab87" x="225.74461" y="191.166304" style="fill: #6ab800; stroke: #6ab800"/>
     <use xlink:href="#m2b487bab87" x="225.903541" y="185.23197" style="fill: #6ab800; stroke: #6ab800"/>
     <use xlink:href="#m2b487bab87" x="235.61701" y="185.206797" style="fill: #6ab800; stroke: #6ab800"/>
     <use xlink:href="#m2b487bab87" x="229.962793" y="196.56405" style="fill: #6ab800; stroke: #6ab800"/>
     <use xlink:href="#m2b487bab87" x="228.341908" y="182.215791" style="fill: #6ab800; stroke: #6ab800"/>
     <use xlink:href="#m2b487bab87" x="237.564386" y="181.83907" style="fill: #6ab800; stroke: #6ab800"/>
     <use xlink:href="#m2b487bab87" x="239.559826" y="181.314871" style="fill: #6ab800; stroke: #6ab800"/>
     <use xlink:href="#m2b487bab87" x="238.845748" y="185.634948" style="fill: #6ab800; stroke: #6ab800"/>
     <use xlink:href="#m2b487bab87" x="235.610798" y="186.679092" style="fill: #6ab800; stroke: #6ab800"/>
     <use xlink:href="#m2b487bab87" x="229.104398" y="186.676265" style="fill: #6ab800; stroke: #6ab800"/>
     <use xlink:href="#m2b487bab87" x="233.300094" y="184.788878" style="fill: #6ab800; stroke: #6ab800"/>
     <use xlink:href="#m2b487bab87" x="224.179314" y="195.733814" style="fill: #6ab800; stroke: #6ab800"/>
     <use xlink:href="#m2b487bab87" x="225.153261" y="192.976796" style="fill: #6ab800; stroke: #6ab800"/>
     <use xlink:href="#m2b487bab87" x="230.832473" y="186.389287" style="fill: #6ab800; stroke: #6ab800"/>
     <use xlink:href="#m2b487bab87" x="223.548474" y="193.405295" style="fill: #6ab800; stroke: #6ab800"/>
     <use xlink:href="#m2b487bab87" x="218.281507" y="184.886407" style="fill: #6ab800; stroke: #6ab800"/>
     <use xlink:href="#m2b487bab87" x="229.880156" y="176.690514" style="fill: #6ab800; stroke: #6ab800"/>
     <use xlink:href="#m2b487bab87" x="238.158351" y="180.844216" style="fill: #6ab800; stroke: #6ab800"/>
     <use xlink:href="#m2b487bab87" x="234.768487" y="199.717541" style="fill: #6ab800; stroke: #6ab800"/>
     <use xlink:href="#m2b487bab87" x="225.406631" y="179.981715" style="fill: #6ab800; stroke: #6ab800"/>
     <use xlink:href="#m2b487bab87" x="222.826779" y="196.732114" style="fill: #6ab800; stroke: #6ab800"/>
     <use xlink:href="#m2b487bab87" x="218.440508" y="189.723495" style="fill: #6ab800; stroke: #6ab800"/>
     <use xlink:href="#m2b487bab87" x="229.874742" y="181.659351" style="fill: #6ab800; stroke: #6ab800"/>
     <use xlink:href="#m2b487bab87" x="229.527372" y="189.578963" style="fill: #6ab800; stroke: #6ab800"/>
     <use xlink:href="#m2b487bab87" x="214.894673" y="201.737371" style="fill: #6ab800; stroke: #6ab800"/>
     <use xlink:href="#m2b487bab87" x="223.541265" y="189.031351" style="fill: #6ab800; stroke: #6ab800"/>
     <use xlink:href="#m2b487bab87" x="226.132324" y="177.250237" style="fill: #6ab800; stroke: #6ab800"/>
     <use xlink:href="#m2b487bab87" x="226.132324" y="182.694712" style="fill: #6ab800; stroke: #6ab800"/>
     <use xlink:href="#m2b487bab87" x="234.262783" y="182.046078" style="fill: #6ab800; stroke: #6ab800"/>
     <use xlink:href="#m2b487bab87" x="224.544037" y="195.254064" style="fill: #6ab800; stroke: #6ab800"/>
     <use xlink:href="#m2b487bab87" x="226.940488" y="185.782163" style="fill: #6ab800; stroke: #6ab800"/>
    </g>
   </g>
   <g id="PathCollection_3">
    <defs>
     <path id="mc959caafc5" d="M 0 3 
C 0.795609 3 1.55874 2.683901 2.12132 2.12132 
C 2.683901 1.55874 3 0.795609 3 0 
C 3 -0.795609 2.683901 -1.55874 2.12132 -2.12132 
C 1.55874 -2.683901 0.795609 -3 0 -3 
C -0.795609 -3 -1.55874 -2.683901 -2.12132 -2.12132 
C -2.683901 -1.55874 -3 -0.795609 -3 0 
C -3 0.795609 -2.683901 1.55874 -2.12132 2.12132 
C -1.55874 2.683901 -0.795609 3 0 3 
z
" style="stroke: #6f078c"/>
    </defs>
    <g clip-path="url(#p2a172b5e22)">
     <use xlink:href="#mc959caafc5" x="224.461855" y="192.895975" style="fill: #6f078c; stroke: #6f078c"/>
     <use xlink:href="#mc959caafc5" x="220.910461" y="199.647164" style="fill: #6f078c; stroke: #6f078c"/>
     <use xlink:href="#mc959caafc5" x="233.982913" y="191.730872" style="fill: #6f078c; stroke: #6f078c"/>
     <use xlink:href="#mc959caafc5" x="225.225088" y="190.792533" style="fill: #6f078c; stroke: #6f078c"/>
     <use xlink:href="#mc959caafc5" x="227.36475" y="194.440037" style="fill: #6f078c; stroke: #6f078c"/>
     <use xlink:href="#mc959caafc5" x="234.929617" y="190.308996" style="fill: #6f078c; stroke: #6f078c"/>
     <use xlink:href="#mc959caafc5" x="205.370414" y="207.611513" style="fill: #6f078c; stroke: #6f078c"/>
     <use xlink:href="#mc959caafc5" x="233.436242" y="188.50206" style="fill: #6f078c; stroke: #6f078c"/>
     <use xlink:href="#mc959caafc5" x="228.927817" y="199.145238" style="fill: #6f078c; stroke: #6f078c"/>
     <use xlink:href="#mc959caafc5" x="234.078552" y="186.31732" style="fill: #6f078c; stroke: #6f078c"/>
     <use xlink:href="#mc959caafc5" x="232.352889" y="187.778031" style="fill: #6f078c; stroke: #6f078c"/>
     <use xlink:href="#mc959caafc5" x="228.866268" y="197.506797" style="fill: #6f078c; stroke: #6f078c"/>
     <use xlink:href="#mc959caafc5" x="233.184102" y="192.691241" style="fill: #6f078c; stroke: #6f078c"/>
     <use xlink:href="#mc959caafc5" x="219.654763" y="207.83417" style="fill: #6f078c; stroke: #6f078c"/>
     <use xlink:href="#mc959caafc5" x="222.496808" y="205.218166" style="fill: #6f078c; stroke: #6f078c"/>
     <use xlink:href="#mc959caafc5" x="229.86859" y="192.547088" style="fill: #6f078c; stroke: #6f078c"/>
     <use xlink:href="#mc959caafc5" x="229.000482" y="188.30229" style="fill: #6f078c; stroke: #6f078c"/>
     <use xlink:href="#mc959caafc5" x="235.437122" y="178.700261" style="fill: #6f078c; stroke: #6f078c"/>
     <use xlink:href="#mc959caafc5" x="234.052683" y="199.815805" style="fill: #6f078c; stroke: #6f078c"/>
     <use xlink:href="#mc959caafc5" x="222.796366" y="207.004383" style="fill: #6f078c; stroke: #6f078c"/>
     <use xlink:href="#mc959caafc5" x="233.169536" y="191.278382" style="fill: #6f078c; stroke: #6f078c"/>
     <use xlink:href="#mc959caafc5" x="219.676673" y="199.718768" style="fill: #6f078c; stroke: #6f078c"/>
     <use xlink:href="#mc959caafc5" x="235.318054" y="192.346146" style="fill: #6f078c; stroke: #6f078c"/>
     <use xlink:href="#mc959caafc5" x="230.545262" y="196.711227" style="fill: #6f078c; stroke: #6f078c"/>
     <use xlink:href="#mc959caafc5" x="230.757214" y="186.654905" style="fill: #6f078c; stroke: #6f078c"/>
     <use xlink:href="#mc959caafc5" x="234.431844" y="183.120236" style="fill: #6f078c; stroke: #6f078c"/>
     <use xlink:href="#mc959caafc5" x="229.960189" y="194.520507" style="fill: #6f078c; stroke: #6f078c"/>
     <use xlink:href="#mc959caafc5" x="227.847913" y="189.584543" style="fill: #6f078c; stroke: #6f078c"/>
     <use xlink:href="#mc959caafc5" x="227.001231" y="197.853211" style="fill: #6f078c; stroke: #6f078c"/>
     <use xlink:href="#mc959caafc5" x="235.805021" y="183.767904" style="fill: #6f078c; stroke: #6f078c"/>
     <use xlink:href="#mc959caafc5" x="236.021537" y="192.033638" style="fill: #6f078c; stroke: #6f078c"/>
     <use xlink:href="#mc959caafc5" x="239.052987" y="175.950385" style="fill: #6f078c; stroke: #6f078c"/>
     <use xlink:href="#mc959caafc5" x="227.149642" y="199.387512" style="fill: #6f078c; stroke: #6f078c"/>
     <use xlink:href="#mc959caafc5" x="228.571278" y="188.141552" style="fill: #6f078c; stroke: #6f078c"/>
     <use xlink:href="#mc959caafc5" x="220.226872" y="191.145126" style="fill: #6f078c; stroke: #6f078c"/>
     <use xlink:href="#mc959caafc5" x="239.165942" y="193.306298" style="fill: #6f078c; stroke: #6f078c"/>
     <use xlink:href="#mc959caafc5" x="226.967194" y="189.910501" style="fill: #6f078c; stroke: #6f078c"/>
     <use xlink:href="#mc959caafc5" x="227.73547" y="186.269274" style="fill: #6f078c; stroke: #6f078c"/>
     <use xlink:href="#mc959caafc5" x="227.111883" y="189.88501" style="fill: #6f078c; stroke: #6f078c"/>
     <use xlink:href="#mc959caafc5" x="235.153348" y="190.563958" style="fill: #6f078c; stroke: #6f078c"/>
     <use xlink:href="#mc959caafc5" x="231.502486" y="195.137499" style="fill: #6f078c; stroke: #6f078c"/>
     <use xlink:href="#mc959caafc5" x="237.31413" y="193.899469" style="fill: #6f078c; stroke: #6f078c"/>
     <use xlink:href="#mc959caafc5" x="220.910461" y="199.647164" style="fill: #6f078c; stroke: #6f078c"/>
     <use xlink:href="#mc959caafc5" x="230.701482" y="191.24353" style="fill: #6f078c; stroke: #6f078c"/>
     <use xlink:href="#mc959caafc5" x="231.056875" y="192.527608" style="fill: #6f078c; stroke: #6f078c"/>
     <use xlink:href="#mc959caafc5" x="234.193171" y="196.286049" style="fill: #6f078c; stroke: #6f078c"/>
     <use xlink:href="#mc959caafc5" x="229.5694" y="203.691403" style="fill: #6f078c; stroke: #6f078c"/>
     <use xlink:href="#mc959caafc5" x="231.462876" y="192.01052" style="fill: #6f078c; stroke: #6f078c"/>
     <use xlink:href="#mc959caafc5" x="226.885086" y="188.710806" style="fill: #6f078c; stroke: #6f078c"/>
     <use xlink:href="#mc959caafc5" x="223.106421" y="189.72855" style="fill: #6f078c; stroke: #6f078c"/>
    </g>
   </g>
   <g id="patch_3">
    <path d="M 236.16 292.537756 
C 267.456553 292.537756 297.475494 280.103504 319.605499 257.973499 
C 341.735504 235.843494 354.169756 205.824553 354.169756 174.528 
C 354.169756 143.231447 341.735504 113.212506 319.605499 91.082501 
C 297.475494 68.952496 267.456553 56.518244 236.16 56.518244 
C 204.863447 56.518244 174.844506 68.952496 152.714501 91.082501 
C 130.584496 113.212506 118.150244 143.231447 118.150244 174.528 
C 118.150244 205.824553 130.584496 235.843494 152.714501 257.973499 
C 174.844506 280.103504 204.863447 292.537756 236.16 292.537756 
L 236.16 292.537756 
z
" clip-path="url(#p2a172b5e22)" style="fill: none"/>
   </g>
   <g id="patch_4">
    <path d="M 354.169756 177.478244 
C 354.95217 177.478244 355.702643 177.167388 356.255894 176.614137 
C 356.809144 176.060887 357.12 175.310414 357.12 174.528 
C 357.12 173.745586 356.809144 172.995113 356.255894 172.441863 
C 355.702643 171.888612 354.95217 171.577756 354.169756 171.577756 
C 353.387342 171.577756 352.636869 171.888612 352.083619 172.441863 
C 351.530369 172.995113 351.219512 173.745586 351.219512 174.528 
C 351.219512 175.310414 351.530369 176.060887 352.083619 176.614137 
C 352.636869 177.167388 353.387342 177.478244 354.169756 177.478244 
z
" clip-path="url(#p2a172b5e22)" style="fill: #808080"/>
   </g>
   <g id="patch_5">
    <path d="M 236.16 59.468488 
C 236.942414 59.468488 237.692887 59.157631 238.246137 58.604381 
C 238.799388 58.051131 239.110244 57.300658 239.110244 56.518244 
C 239.110244 55.73583 238.799388 54.985357 238.246137 54.432106 
C 237.692887 53.878856 236.942414 53.568 236.16 53.568 
C 235.377586 53.568 234.627113 53.878856 234.073863 54.432106 
C 233.520612 54.985357 233.209756 55.73583 233.209756 56.518244 
C 233.209756 57.300658 233.520612 58.051131 234.073863 58.604381 
C 234.627113 59.157631 235.377586 59.468488 236.16 59.468488 
z
" clip-path="url(#p2a172b5e22)" style="fill: #808080"/>
   </g>
   <g id="patch_6">
    <path d="M 118.150244 177.478244 
C 118.932658 177.478244 119.683131 177.167388 120.236381 176.614137 
C 120.789631 176.060887 121.100488 175.310414 121.100488 174.528 
C 121.100488 173.745586 120.789631 172.995113 120.236381 172.441863 
C 119.683131 171.888612 118.932658 171.577756 118.150244 171.577756 
C 117.36783 171.577756 116.617357 171.888612 116.064106 172.441863 
C 115.510856 172.995113 115.2 173.745586 115.2 174.528 
C 115.2 175.310414 115.510856 176.060887 116.064106 176.614137 
C 116.617357 177.167388 117.36783 177.478244 118.150244 177.478244 
z
" clip-path="url(#p2a172b5e22)" style="fill: #808080"/>
   </g>
   <g id="patch_7">
    <path d="M 236.16 295.488 
C 236.942414 295.488 237.692887 295.177144 238.246137 294.623894 
C 238.799388 294.070643 239.110244 293.32017 239.110244 292.537756 
C 239.110244 291.755342 238.799388 291.004869 238.246137 290.451619 
C 237.692887 289.898369 236.942414 289.587512 236.16 289.587512 
C 235.377586 289.587512 234.627113 289.898369 234.073863 290.451619 
C 233.520612 291.004869 233.209756 291.755342 233.209756 292.537756 
C 233.209756 293.32017 233.520612 294.070643 234.073863 294.623894 
C 234.627113 295.177144 235.377586 295.488 236.16 295.488 
z
" clip-path="url(#p2a172b5e22)" style="fill: #808080"/>
   </g>
   <g id="matplotlib.axis_1">
    <g id="xtick_1">
     <g id="line2d_1">
      <defs>
       <path id="m163e1de03d" d="M 0 0 
L 0 3.5 
" style="stroke: #000000; stroke-width: 0.8"/>
      </defs>
      <g>
       <use xlink:href="#m163e1de03d" x="59.145366" y="307.584" style="stroke: #000000; stroke-width: 0.8"/>
      </g>
     </g>
     <g id="text_1">
      <!-- −1.5 -->
      <g transform="translate(47.00396 322.182437) scale(0.1 -0.1)">
       <defs>
        <path id="DejaVuSans-2212" d="M 678 2272 
L 4684 2272 
L 4684 1741 
L 678 1741 
L 678 2272 
z
" transform="scale(0.015625)"/>
        <path id="DejaVuSans-31" d="M 794 531 
L 1825 531 
L 1825 4091 
L 703 3866 
L 703 4441 
L 1819 4666 
L 2450 4666 
L 2450 531 
L 3481 531 
L 3481 0 
L 794 0 
L 794 531 
z
" transform="scale(0.015625)"/>
        <path id="DejaVuSans-2e" d="M 684 794 
L 1344 794 
L 1344 0 
L 684 0 
L 684 794 
z
" transform="scale(0.015625)"/>
        <path id="DejaVuSans-35" d="M 691 4666 
L 3169 4666 
L 3169 4134 
L 1269 4134 
L 1269 2991 
Q 1406 3038 1543 3061 
Q 1681 3084 1819 3084 
Q 2600 3084 3056 2656 
Q 3513 2228 3513 1497 
Q 3513 744 3044 326 
Q 2575 -91 1722 -91 
Q 1428 -91 1123 -41 
Q 819 9 494 109 
L 494 744 
Q 775 591 1075 516 
Q 1375 441 1709 441 
Q 2250 441 2565 725 
Q 2881 1009 2881 1497 
Q 2881 1984 2565 2268 
Q 2250 2553 1709 2553 
Q 1456 2553 1204 2497 
Q 953 2441 691 2322 
L 691 4666 
z
" transform="scale(0.015625)"/>
       </defs>
       <use xlink:href="#DejaVuSans-2212"/>
       <use xlink:href="#DejaVuSans-31" x="83.789062"/>
       <use xlink:href="#DejaVuSans-2e" x="147.412109"/>
       <use xlink:href="#DejaVuSans-35" x="179.199219"/>
      </g>
     </g>
    </g>
    <g id="xtick_2">
     <g id="line2d_2">
      <g>
       <use xlink:href="#m163e1de03d" x="118.150244" y="307.584" style="stroke: #000000; stroke-width: 0.8"/>
      </g>
     </g>
     <g id="text_2">
      <!-- −1.0 -->
      <g transform="translate(106.008838 322.182437) scale(0.1 -0.1)">
       <defs>
        <path id="DejaVuSans-30" d="M 2034 4250 
Q 1547 4250 1301 3770 
Q 1056 3291 1056 2328 
Q 1056 1369 1301 889 
Q 1547 409 2034 409 
Q 2525 409 2770 889 
Q 3016 1369 3016 2328 
Q 3016 3291 2770 3770 
Q 2525 4250 2034 4250 
z
M 2034 4750 
Q 2819 4750 3233 4129 
Q 3647 3509 3647 2328 
Q 3647 1150 3233 529 
Q 2819 -91 2034 -91 
Q 1250 -91 836 529 
Q 422 1150 422 2328 
Q 422 3509 836 4129 
Q 1250 4750 2034 4750 
z
" transform="scale(0.015625)"/>
       </defs>
       <use xlink:href="#DejaVuSans-2212"/>
       <use xlink:href="#DejaVuSans-31" x="83.789062"/>
       <use xlink:href="#DejaVuSans-2e" x="147.412109"/>
       <use xlink:href="#DejaVuSans-30" x="179.199219"/>
      </g>
     </g>
    </g>
    <g id="xtick_3">
     <g id="line2d_3">
      <g>
       <use xlink:href="#m163e1de03d" x="177.155122" y="307.584" style="stroke: #000000; stroke-width: 0.8"/>
      </g>
     </g>
     <g id="text_3">
      <!-- −0.5 -->
      <g transform="translate(165.013716 322.182437) scale(0.1 -0.1)">
       <use xlink:href="#DejaVuSans-2212"/>
       <use xlink:href="#DejaVuSans-30" x="83.789062"/>
       <use xlink:href="#DejaVuSans-2e" x="147.412109"/>
       <use xlink:href="#DejaVuSans-35" x="179.199219"/>
      </g>
     </g>
    </g>
    <g id="xtick_4">
     <g id="line2d_4">
      <g>
       <use xlink:href="#m163e1de03d" x="236.16" y="307.584" style="stroke: #000000; stroke-width: 0.8"/>
      </g>
     </g>
     <g id="text_4">
      <!-- 0.0 -->
      <g transform="translate(228.208437 322.182437) scale(0.1 -0.1)">
       <use xlink:href="#DejaVuSans-30"/>
       <use xlink:href="#DejaVuSans-2e" x="63.623047"/>
       <use xlink:href="#DejaVuSans-30" x="95.410156"/>
      </g>
     </g>
    </g>
    <g id="xtick_5">
     <g id="line2d_5">
      <g>
       <use xlink:href="#m163e1de03d" x="295.164878" y="307.584" style="stroke: #000000; stroke-width: 0.8"/>
      </g>
     </g>
     <g id="text_5">
      <!-- 0.5 -->
      <g transform="translate(287.213316 322.182437) scale(0.1 -0.1)">
       <use xlink:href="#DejaVuSans-30"/>
       <use xlink:href="#DejaVuSans-2e" x="63.623047"/>
       <use xlink:href="#DejaVuSans-35" x="95.410156"/>
      </g>
     </g>
    </g>
    <g id="xtick_6">
     <g id="line2d_6">
      <g>
       <use xlink:href="#m163e1de03d" x="354.169756" y="307.584" style="stroke: #000000; stroke-width: 0.8"/>
      </g>
     </g>
     <g id="text_6">
      <!-- 1.0 -->
      <g transform="translate(346.218194 322.182437) scale(0.1 -0.1)">
       <use xlink:href="#DejaVuSans-31"/>
       <use xlink:href="#DejaVuSans-2e" x="63.623047"/>
       <use xlink:href="#DejaVuSans-30" x="95.410156"/>
      </g>
     </g>
    </g>
    <g id="xtick_7">
     <g id="line2d_7">
      <g>
       <use xlink:href="#m163e1de03d" x="413.174634" y="307.584" style="stroke: #000000; stroke-width: 0.8"/>
      </g>
     </g>
     <g id="text_7">
      <!-- 1.5 -->
      <g transform="translate(405.223072 322.182437) scale(0.1 -0.1)">
       <use xlink:href="#DejaVuSans-31"/>
       <use xlink:href="#DejaVuSans-2e" x="63.623047"/>
       <use xlink:href="#DejaVuSans-35" x="95.410156"/>
      </g>
     </g>
    </g>
   </g>
   <g id="matplotlib.axis_2">
    <g id="ytick_1">
     <g id="line2d_8">
      <defs>
       <path id="me2c056f7aa" d="M 0 0 
L -3.5 0 
" style="stroke: #000000; stroke-width: 0.8"/>
      </defs>
      <g>
       <use xlink:href="#me2c056f7aa" x="57.6" y="292.537756" style="stroke: #000000; stroke-width: 0.8"/>
      </g>
     </g>
     <g id="text_8">
      <!-- −1.0 -->
      <g transform="translate(26.317187 296.336975) scale(0.1 -0.1)">
       <use xlink:href="#DejaVuSans-2212"/>
       <use xlink:href="#DejaVuSans-31" x="83.789062"/>
       <use xlink:href="#DejaVuSans-2e" x="147.412109"/>
       <use xlink:href="#DejaVuSans-30" x="179.199219"/>
      </g>
     </g>
    </g>
    <g id="ytick_2">
     <g id="line2d_9">
      <g>
       <use xlink:href="#me2c056f7aa" x="57.6" y="233.532878" style="stroke: #000000; stroke-width: 0.8"/>
      </g>
     </g>
     <g id="text_9">
      <!-- −0.5 -->
      <g transform="translate(26.317187 237.332097) scale(0.1 -0.1)">
       <use xlink:href="#DejaVuSans-2212"/>
       <use xlink:href="#DejaVuSans-30" x="83.789062"/>
       <use xlink:href="#DejaVuSans-2e" x="147.412109"/>
       <use xlink:href="#DejaVuSans-35" x="179.199219"/>
      </g>
     </g>
    </g>
    <g id="ytick_3">
     <g id="line2d_10">
      <g>
       <use xlink:href="#me2c056f7aa" x="57.6" y="174.528" style="stroke: #000000; stroke-width: 0.8"/>
      </g>
     </g>
     <g id="text_10">
      <!-- 0.0 -->
      <g transform="translate(34.696875 178.327219) scale(0.1 -0.1)">
       <use xlink:href="#DejaVuSans-30"/>
       <use xlink:href="#DejaVuSans-2e" x="63.623047"/>
       <use xlink:href="#DejaVuSans-30" x="95.410156"/>
      </g>
     </g>
    </g>
    <g id="ytick_4">
     <g id="line2d_11">
      <g>
       <use xlink:href="#me2c056f7aa" x="57.6" y="115.523122" style="stroke: #000000; stroke-width: 0.8"/>
      </g>
     </g>
     <g id="text_11">
      <!-- 0.5 -->
      <g transform="translate(34.696875 119.322341) scale(0.1 -0.1)">
       <use xlink:href="#DejaVuSans-30"/>
       <use xlink:href="#DejaVuSans-2e" x="63.623047"/>
       <use xlink:href="#DejaVuSans-35" x="95.410156"/>
      </g>
     </g>
    </g>
    <g id="ytick_5">
     <g id="line2d_12">
      <g>
       <use xlink:href="#me2c056f7aa" x="57.6" y="56.518244" style="stroke: #000000; stroke-width: 0.8"/>
      </g>
     </g>
     <g id="text_12">
      <!-- 1.0 -->
      <g transform="translate(34.696875 60.317463) scale(0.1 -0.1)">
       <use xlink:href="#DejaVuSans-31"/>
       <use xlink:href="#DejaVuSans-2e" x="63.623047"/>
       <use xlink:href="#DejaVuSans-30" x="95.410156"/>
      </g>
     </g>
    </g>
   </g>
   <g id="patch_8">
    <path d="M 57.6 307.584 
L 57.6 41.472 
" style="fill: none; stroke: #000000; stroke-width: 0.8; stroke-linejoin: miter; stroke-linecap: square"/>
   </g>
   <g id="patch_9">
    <path d="M 414.72 307.584 
L 414.72 41.472 
" style="fill: none; stroke: #000000; stroke-width: 0.8; stroke-linejoin: miter; stroke-linecap: square"/>
   </g>
   <g id="patch_10">
    <path d="M 57.6 307.584 
L 414.72 307.584 
" style="fill: none; stroke: #000000; stroke-width: 0.8; stroke-linejoin: miter; stroke-linecap: square"/>
   </g>
   <g id="patch_11">
    <path d="M 57.6 41.472 
L 414.72 41.472 
" style="fill: none; stroke: #000000; stroke-width: 0.8; stroke-linejoin: miter; stroke-linecap: square"/>
   </g>
   <g id="text_13">
    <!-- sepal-length -->
    <g transform="translate(357.12 169.845376) scale(0.0833 -0.0833)">
     <defs>
      <path id="DejaVuSans-73" d="M 2834 3397 
L 2834 2853 
Q 2591 2978 2328 3040 
Q 2066 3103 1784 3103 
Q 1356 3103 1142 2972 
Q 928 2841 928 2578 
Q 928 2378 1081 2264 
Q 1234 2150 1697 2047 
L 1894 2003 
Q 2506 1872 2764 1633 
Q 3022 1394 3022 966 
Q 3022 478 2636 193 
Q 2250 -91 1575 -91 
Q 1294 -91 989 -36 
Q 684 19 347 128 
L 347 722 
Q 666 556 975 473 
Q 1284 391 1588 391 
Q 1994 391 2212 530 
Q 2431 669 2431 922 
Q 2431 1156 2273 1281 
Q 2116 1406 1581 1522 
L 1381 1569 
Q 847 1681 609 1914 
Q 372 2147 372 2553 
Q 372 3047 722 3315 
Q 1072 3584 1716 3584 
Q 2034 3584 2315 3537 
Q 2597 3491 2834 3397 
z
" transform="scale(0.015625)"/>
      <path id="DejaVuSans-65" d="M 3597 1894 
L 3597 1613 
L 953 1613 
Q 991 1019 1311 708 
Q 1631 397 2203 397 
Q 2534 397 2845 478 
Q 3156 559 3463 722 
L 3463 178 
Q 3153 47 2828 -22 
Q 2503 -91 2169 -91 
Q 1331 -91 842 396 
Q 353 884 353 1716 
Q 353 2575 817 3079 
Q 1281 3584 2069 3584 
Q 2775 3584 3186 3129 
Q 3597 2675 3597 1894 
z
M 3022 2063 
Q 3016 2534 2758 2815 
Q 2500 3097 2075 3097 
Q 1594 3097 1305 2825 
Q 1016 2553 972 2059 
L 3022 2063 
z
" transform="scale(0.015625)"/>
      <path id="DejaVuSans-70" d="M 1159 525 
L 1159 -1331 
L 581 -1331 
L 581 3500 
L 1159 3500 
L 1159 2969 
Q 1341 3281 1617 3432 
Q 1894 3584 2278 3584 
Q 2916 3584 3314 3078 
Q 3713 2572 3713 1747 
Q 3713 922 3314 415 
Q 2916 -91 2278 -91 
Q 1894 -91 1617 61 
Q 1341 213 1159 525 
z
M 3116 1747 
Q 3116 2381 2855 2742 
Q 2594 3103 2138 3103 
Q 1681 3103 1420 2742 
Q 1159 2381 1159 1747 
Q 1159 1113 1420 752 
Q 1681 391 2138 391 
Q 2594 391 2855 752 
Q 3116 1113 3116 1747 
z
" transform="scale(0.015625)"/>
      <path id="DejaVuSans-61" d="M 2194 1759 
Q 1497 1759 1228 1600 
Q 959 1441 959 1056 
Q 959 750 1161 570 
Q 1363 391 1709 391 
Q 2188 391 2477 730 
Q 2766 1069 2766 1631 
L 2766 1759 
L 2194 1759 
z
M 3341 1997 
L 3341 0 
L 2766 0 
L 2766 531 
Q 2569 213 2275 61 
Q 1981 -91 1556 -91 
Q 1019 -91 701 211 
Q 384 513 384 1019 
Q 384 1609 779 1909 
Q 1175 2209 1959 2209 
L 2766 2209 
L 2766 2266 
Q 2766 2663 2505 2880 
Q 2244 3097 1772 3097 
Q 1472 3097 1187 3025 
Q 903 2953 641 2809 
L 641 3341 
Q 956 3463 1253 3523 
Q 1550 3584 1831 3584 
Q 2591 3584 2966 3190 
Q 3341 2797 3341 1997 
z
" transform="scale(0.015625)"/>
      <path id="DejaVuSans-6c" d="M 603 4863 
L 1178 4863 
L 1178 0 
L 603 0 
L 603 4863 
z
" transform="scale(0.015625)"/>
      <path id="DejaVuSans-2d" d="M 313 2009 
L 1997 2009 
L 1997 1497 
L 313 1497 
L 313 2009 
z
" transform="scale(0.015625)"/>
      <path id="DejaVuSans-6e" d="M 3513 2113 
L 3513 0 
L 2938 0 
L 2938 2094 
Q 2938 2591 2744 2837 
Q 2550 3084 2163 3084 
Q 1697 3084 1428 2787 
Q 1159 2491 1159 1978 
L 1159 0 
L 581 0 
L 581 3500 
L 1159 3500 
L 1159 2956 
Q 1366 3272 1645 3428 
Q 1925 3584 2291 3584 
Q 2894 3584 3203 3211 
Q 3513 2838 3513 2113 
z
" transform="scale(0.015625)"/>
      <path id="DejaVuSans-67" d="M 2906 1791 
Q 2906 2416 2648 2759 
Q 2391 3103 1925 3103 
Q 1463 3103 1205 2759 
Q 947 2416 947 1791 
Q 947 1169 1205 825 
Q 1463 481 1925 481 
Q 2391 481 2648 825 
Q 2906 1169 2906 1791 
z
M 3481 434 
Q 3481 -459 3084 -895 
Q 2688 -1331 1869 -1331 
Q 1566 -1331 1297 -1286 
Q 1028 -1241 775 -1147 
L 775 -588 
Q 1028 -725 1275 -790 
Q 1522 -856 1778 -856 
Q 2344 -856 2625 -561 
Q 2906 -266 2906 331 
L 2906 616 
Q 2728 306 2450 153 
Q 2172 0 1784 0 
Q 1141 0 747 490 
Q 353 981 353 1791 
Q 353 2603 747 3093 
Q 1141 3584 1784 3584 
Q 2172 3584 2450 3431 
Q 2728 3278 2906 2969 
L 2906 3500 
L 3481 3500 
L 3481 434 
z
" transform="scale(0.015625)"/>
      <path id="DejaVuSans-74" d="M 1172 4494 
L 1172 3500 
L 2356 3500 
L 2356 3053 
L 1172 3053 
L 1172 1153 
Q 1172 725 1289 603 
Q 1406 481 1766 481 
L 2356 481 
L 2356 0 
L 1766 0 
Q 1100 0 847 248 
Q 594 497 594 1153 
L 594 3053 
L 172 3053 
L 172 3500 
L 594 3500 
L 594 4494 
L 1172 4494 
z
" transform="scale(0.015625)"/>
      <path id="DejaVuSans-68" d="M 3513 2113 
L 3513 0 
L 2938 0 
L 2938 2094 
Q 2938 2591 2744 2837 
Q 2550 3084 2163 3084 
Q 1697 3084 1428 2787 
Q 1159 2491 1159 1978 
L 1159 0 
L 581 0 
L 581 4863 
L 1159 4863 
L 1159 2956 
Q 1366 3272 1645 3428 
Q 1925 3584 2291 3584 
Q 2894 3584 3203 3211 
Q 3513 2838 3513 2113 
z
" transform="scale(0.015625)"/>
     </defs>
     <use xlink:href="#DejaVuSans-73"/>
     <use xlink:href="#DejaVuSans-65" x="52.099609"/>
     <use xlink:href="#DejaVuSans-70" x="113.623047"/>
     <use xlink:href="#DejaVuSans-61" x="177.099609"/>
     <use xlink:href="#DejaVuSans-6c" x="238.378906"/>
     <use xlink:href="#DejaVuSans-2d" x="266.162109"/>
     <use xlink:href="#DejaVuSans-6c" x="302.246094"/>
     <use xlink:href="#DejaVuSans-65" x="330.029297"/>
     <use xlink:href="#DejaVuSans-6e" x="391.552734"/>
     <use xlink:href="#DejaVuSans-67" x="454.931641"/>
     <use xlink:href="#DejaVuSans-74" x="518.408203"/>
     <use xlink:href="#DejaVuSans-68" x="557.617188"/>
    </g>
   </g>
   <g id="text_14">
    <!-- sepal-width -->
    <g transform="translate(239.110244 51.83562) scale(0.0833 -0.0833)">
     <defs>
      <path id="DejaVuSans-77" d="M 269 3500 
L 844 3500 
L 1563 769 
L 2278 3500 
L 2956 3500 
L 3675 769 
L 4391 3500 
L 4966 3500 
L 4050 0 
L 3372 0 
L 2619 2869 
L 1863 0 
L 1184 0 
L 269 3500 
z
" transform="scale(0.015625)"/>
      <path id="DejaVuSans-69" d="M 603 3500 
L 1178 3500 
L 1178 0 
L 603 0 
L 603 3500 
z
M 603 4863 
L 1178 4863 
L 1178 4134 
L 603 4134 
L 603 4863 
z
" transform="scale(0.015625)"/>
      <path id="DejaVuSans-64" d="M 2906 2969 
L 2906 4863 
L 3481 4863 
L 3481 0 
L 2906 0 
L 2906 525 
Q 2725 213 2448 61 
Q 2172 -91 1784 -91 
Q 1150 -91 751 415 
Q 353 922 353 1747 
Q 353 2572 751 3078 
Q 1150 3584 1784 3584 
Q 2172 3584 2448 3432 
Q 2725 3281 2906 2969 
z
M 947 1747 
Q 947 1113 1208 752 
Q 1469 391 1925 391 
Q 2381 391 2643 752 
Q 2906 1113 2906 1747 
Q 2906 2381 2643 2742 
Q 2381 3103 1925 3103 
Q 1469 3103 1208 2742 
Q 947 2381 947 1747 
z
" transform="scale(0.015625)"/>
     </defs>
     <use xlink:href="#DejaVuSans-73"/>
     <use xlink:href="#DejaVuSans-65" x="52.099609"/>
     <use xlink:href="#DejaVuSans-70" x="113.623047"/>
     <use xlink:href="#DejaVuSans-61" x="177.099609"/>
     <use xlink:href="#DejaVuSans-6c" x="238.378906"/>
     <use xlink:href="#DejaVuSans-2d" x="266.162109"/>
     <use xlink:href="#DejaVuSans-77" x="302.246094"/>
     <use xlink:href="#DejaVuSans-69" x="384.033203"/>
     <use xlink:href="#DejaVuSans-64" x="411.816406"/>
     <use xlink:href="#DejaVuSans-74" x="475.292969"/>
     <use xlink:href="#DejaVuSans-68" x="514.501953"/>
    </g>
   </g>
   <g id="text_15">
    <!-- petal-length -->
    <g transform="translate(64.544489 169.845376) scale(0.0833 -0.0833)">
     <use xlink:href="#DejaVuSans-70"/>
     <use xlink:href="#DejaVuSans-65" x="63.476562"/>
     <use xlink:href="#DejaVuSans-74" x="125"/>
     <use xlink:href="#DejaVuSans-61" x="164.208984"/>
     <use xlink:href="#DejaVuSans-6c" x="225.488281"/>
     <use xlink:href="#DejaVuSans-2d" x="253.271484"/>
     <use xlink:href="#DejaVuSans-6c" x="289.355469"/>
     <use xlink:href="#DejaVuSans-65" x="317.138672"/>
     <use xlink:href="#DejaVuSans-6e" x="378.662109"/>
     <use xlink:href="#DejaVuSans-67" x="442.041016"/>
     <use xlink:href="#DejaVuSans-74" x="505.517578"/>
     <use xlink:href="#DejaVuSans-68" x="544.726562"/>
    </g>
   </g>
   <g id="text_16">
    <!-- petal-width -->
    <g transform="translate(186.146558 301.817498) scale(0.0833 -0.0833)">
     <use xlink:href="#DejaVuSans-70"/>
     <use xlink:href="#DejaVuSans-65" x="63.476562"/>
     <use xlink:href="#DejaVuSans-74" x="125"/>
     <use xlink:href="#DejaVuSans-61" x="164.208984"/>
     <use xlink:href="#DejaVuSans-6c" x="225.488281"/>
     <use xlink:href="#DejaVuSans-2d" x="253.271484"/>
     <use xlink:href="#DejaVuSans-77" x="289.355469"/>
     <use xlink:href="#DejaVuSans-69" x="371.142578"/>
     <use xlink:href="#DejaVuSans-64" x="398.925781"/>
     <use xlink:href="#DejaVuSans-74" x="462.402344"/>
     <use xlink:href="#DejaVuSans-68" x="501.611328"/>
    </g>
   </g>
   <g id="legend_1">
    <g id="patch_12">
     <path d="M 308.530937 93.506375 
L 407.72 93.506375 
Q 409.72 93.506375 409.72 91.506375 
L 409.72 48.472 
Q 409.72 46.472 407.72 46.472 
L 308.530937 46.472 
Q 306.530937 46.472 306.530937 48.472 
L 306.530937 91.506375 
Q 306.530937 93.506375 308.530937 93.506375 
z
" style="fill: #ffffff; opacity: 0.8; stroke: #cccccc; stroke-linejoin: miter"/>
    </g>
    <g id="PathCollection_4">
     <g>
      <use xlink:href="#m652cafe0fb" x="320.530937" y="55.445438" style="fill: #8cb69a; stroke: #8cb69a"/>
     </g>
    </g>
    <g id="text_17">
     <!-- Iris-setosa -->
     <g transform="translate(338.530937 58.070438) scale(0.1 -0.1)">
      <defs>
       <path id="DejaVuSans-49" d="M 628 4666 
L 1259 4666 
L 1259 0 
L 628 0 
L 628 4666 
z
" transform="scale(0.015625)"/>
       <path id="DejaVuSans-72" d="M 2631 2963 
Q 2534 3019 2420 3045 
Q 2306 3072 2169 3072 
Q 1681 3072 1420 2755 
Q 1159 2438 1159 1844 
L 1159 0 
L 581 0 
L 581 3500 
L 1159 3500 
L 1159 2956 
Q 1341 3275 1631 3429 
Q 1922 3584 2338 3584 
Q 2397 3584 2469 3576 
Q 2541 3569 2628 3553 
L 2631 2963 
z
" transform="scale(0.015625)"/>
       <path id="DejaVuSans-6f" d="M 1959 3097 
Q 1497 3097 1228 2736 
Q 959 2375 959 1747 
Q 959 1119 1226 758 
Q 1494 397 1959 397 
Q 2419 397 2687 759 
Q 2956 1122 2956 1747 
Q 2956 2369 2687 2733 
Q 2419 3097 1959 3097 
z
M 1959 3584 
Q 2709 3584 3137 3096 
Q 3566 2609 3566 1747 
Q 3566 888 3137 398 
Q 2709 -91 1959 -91 
Q 1206 -91 779 398 
Q 353 888 353 1747 
Q 353 2609 779 3096 
Q 1206 3584 1959 3584 
z
" transform="scale(0.015625)"/>
      </defs>
      <use xlink:href="#DejaVuSans-49"/>
      <use xlink:href="#DejaVuSans-72" x="29.492188"/>
      <use xlink:href="#DejaVuSans-69" x="70.605469"/>
      <use xlink:href="#DejaVuSans-73" x="98.388672"/>
      <use xlink:href="#DejaVuSans-2d" x="150.488281"/>
      <use xlink:href="#DejaVuSans-73" x="186.572266"/>
      <use xlink:href="#DejaVuSans-65" x="238.671875"/>
      <use xlink:href="#DejaVuSans-74" x="300.195312"/>
      <use xlink:href="#DejaVuSans-6f" x="339.404297"/>
      <use xlink:href="#DejaVuSans-73" x="400.585938"/>
      <use xlink:href="#DejaVuSans-61" x="452.685547"/>
     </g>
    </g>
    <g id="PathCollection_5">
     <g>
      <use xlink:href="#m2b487bab87" x="320.530937" y="70.123563" style="fill: #6ab800; stroke: #6ab800"/>
     </g>
    </g>
    <g id="text_18">
     <!-- Iris-versicolor -->
     <g transform="translate(338.530937 72.748563) scale(0.1 -0.1)">
      <defs>
       <path id="DejaVuSans-76" d="M 191 3500 
L 800 3500 
L 1894 563 
L 2988 3500 
L 3597 3500 
L 2284 0 
L 1503 0 
L 191 3500 
z
" transform="scale(0.015625)"/>
       <path id="DejaVuSans-63" d="M 3122 3366 
L 3122 2828 
Q 2878 2963 2633 3030 
Q 2388 3097 2138 3097 
Q 1578 3097 1268 2742 
Q 959 2388 959 1747 
Q 959 1106 1268 751 
Q 1578 397 2138 397 
Q 2388 397 2633 464 
Q 2878 531 3122 666 
L 3122 134 
Q 2881 22 2623 -34 
Q 2366 -91 2075 -91 
Q 1284 -91 818 406 
Q 353 903 353 1747 
Q 353 2603 823 3093 
Q 1294 3584 2113 3584 
Q 2378 3584 2631 3529 
Q 2884 3475 3122 3366 
z
" transform="scale(0.015625)"/>
      </defs>
      <use xlink:href="#DejaVuSans-49"/>
      <use xlink:href="#DejaVuSans-72" x="29.492188"/>
      <use xlink:href="#DejaVuSans-69" x="70.605469"/>
      <use xlink:href="#DejaVuSans-73" x="98.388672"/>
      <use xlink:href="#DejaVuSans-2d" x="150.488281"/>
      <use xlink:href="#DejaVuSans-76" x="183.947266"/>
      <use xlink:href="#DejaVuSans-65" x="243.126953"/>
      <use xlink:href="#DejaVuSans-72" x="304.650391"/>
      <use xlink:href="#DejaVuSans-73" x="345.763672"/>
      <use xlink:href="#DejaVuSans-69" x="397.863281"/>
      <use xlink:href="#DejaVuSans-63" x="425.646484"/>
      <use xlink:href="#DejaVuSans-6f" x="480.626953"/>
      <use xlink:href="#DejaVuSans-6c" x="541.808594"/>
      <use xlink:href="#DejaVuSans-6f" x="569.591797"/>
      <use xlink:href="#DejaVuSans-72" x="630.773438"/>
     </g>
    </g>
    <g id="PathCollection_6">
     <g>
      <use xlink:href="#mc959caafc5" x="320.530937" y="84.801688" style="fill: #6f078c; stroke: #6f078c"/>
     </g>
    </g>
    <g id="text_19">
     <!-- Iris-virginica -->
     <g transform="translate(338.530937 87.426688) scale(0.1 -0.1)">
      <use xlink:href="#DejaVuSans-49"/>
      <use xlink:href="#DejaVuSans-72" x="29.492188"/>
      <use xlink:href="#DejaVuSans-69" x="70.605469"/>
      <use xlink:href="#DejaVuSans-73" x="98.388672"/>
      <use xlink:href="#DejaVuSans-2d" x="150.488281"/>
      <use xlink:href="#DejaVuSans-76" x="183.947266"/>
      <use xlink:href="#DejaVuSans-69" x="243.126953"/>
      <use xlink:href="#DejaVuSans-72" x="270.910156"/>
      <use xlink:href="#DejaVuSans-67" x="310.273438"/>
      <use xlink:href="#DejaVuSans-69" x="373.75"/>
      <use xlink:href="#DejaVuSans-6e" x="401.533203"/>
      <use xlink:href="#DejaVuSans-69" x="464.912109"/>
      <use xlink:href="#DejaVuSans-63" x="492.695312"/>
      <use xlink:href="#DejaVuSans-61" x="547.675781"/>
     </g>
    </g>
   </g>
  </g>
 </g>
 <defs>
  <clipPath id="p2a172b5e22">
   <rect x="57.6" y="41.472" width="357.12" height="266.112"/>
  </clipPath>
 </defs>
</svg>
